<?xml version="1.0" encoding="UTF-8"?>
<svg id="Calque_1" data-name="Calque 1" xmlns="http://www.w3.org/2000/svg" viewBox="0 0 21 16.5">
  <path d="m18,16.5H3c-1.65,0-3-1.35-3-3V3C0,1.35,1.35,0,3,0h15c1.65,0,3,1.35,3,3v10.5c0,1.65-1.35,3-3,3ZM1.5,5.84v7.66c0,.83.67,1.5,1.5,1.5h15c.83,0,1.5-.67,1.5-1.5v-7.66l-7.43,4.57c-.97.6-2.17.6-3.15,0L1.5,5.84Zm0-2.6c0,.52.27,1.01.71,1.28l7.5,4.61c.49.3,1.09.3,1.57,0l7.5-4.62c.44-.27.71-.76.71-1.28v-.24c0-.83-.67-1.5-1.5-1.5H3c-.83,0-1.5.67-1.5,1.5v.24Z" fill="#1E1E1E"/>
</svg>