<?xml version="1.0" encoding="utf-8"?>
<!-- Generator: Adobe Illustrator 27.6.1, SVG Export Plug-In . SVG Version: 6.00 Build 0)  -->
<svg version="1.1" id="SVG" xmlns="http://www.w3.org/2000/svg" xmlns:xlink="http://www.w3.org/1999/xlink" x="0px" y="0px"
	 viewBox="0 0 24 13.9" style="enable-background:new 0 0 24 13.9;" xml:space="preserve">
<path d="M24,13.6c-0.7,0.3-1.5,0-1.9-0.7l-3.5-4.8l-0.5-0.7l-4,5.4c-0.3,0.7-1.1,1-1.8,0.7l5.2-6.9l-4.8-6.3c0.7-0.3,1.5,0,1.9,0.7
	l3.6,4.8l3.6-4.8c0.3-0.6,1.1-0.9,1.8-0.7l-1.9,2.5l-2.5,3.3c-0.3,0.2-0.3,0.7-0.1,0.9c0,0,0,0,0.1,0.1L24,13.6L24,13.6z M0,6.5
	l0.4-2.1c1.2-4.1,5.9-5.8,9.1-3.3c1.9,1.5,2.4,3.6,2.3,6H1.1C0.9,11.4,4,14,7.9,12.7c1.3-0.5,2.3-1.5,2.6-2.9
	c0.2-0.7,0.5-0.8,1.2-0.6c-0.2,1.6-1.2,3.1-2.6,4c-2.4,1.3-5.3,0.9-7.3-0.9c-1-1.1-1.5-2.4-1.6-3.9c0-0.2-0.1-0.5-0.1-0.7
	C0,7.3,0,6.9,0,6.5L0,6.5z M1.1,6.3h9.7C10.7,3.2,8.8,1,6.2,1C3.3,0.9,1.2,3.1,1.1,6.3L1.1,6.3z" fill="currentColor"/>
</svg>
