<?xml version="1.0" encoding="utf-8"?>
<!-- Generator: Adobe Illustrator 27.6.1, SVG Export Plug-In . SVG Version: 6.00 Build 0)  -->
<svg version="1.1" id="Layer_1" xmlns="http://www.w3.org/2000/svg" xmlns:xlink="http://www.w3.org/1999/xlink" x="0px" y="0px"
	 viewBox="0 0 333.2 452.1" style="enable-background:new 0 0 333.2 452.1;" xml:space="preserve">
<g>
	<path class="st0" d="M107.4,349.6c0,0-17.3,10,12.3,13.4c35.8,4.1,54.1,3.5,93.6-4c0,0,10.4,6.5,24.9,12.1
		C149.7,409.1,37.9,369,107.4,349.6L107.4,349.6z" fill="currentColor"/>
	<path class="st0" d="M96.6,300.1c0,0-19.4,14.3,10.2,17.4c38.3,4,68.5,4.3,120.8-5.8c0,0,7.2,7.3,18.6,11.3
		C139.2,354.3,20,325.5,96.6,300.1L96.6,300.1z" fill="currentColor"/>
	<path class="st0" d="M187.7,216.1c21.8,25.1-5.7,47.7-5.7,47.7s55.4-28.6,29.9-64.4c-23.8-33.4-42-50,56.6-107.1
		C268.6,92.3,113.8,131,187.7,216.1L187.7,216.1z" fill="currentColor"/>
	<path class="st0" d="M304.8,386.2c0,0,12.8,10.5-14.1,18.7c-51.1,15.5-212.6,20.1-257.5,0.6c-16.1-7,14.1-16.8,23.6-18.8
		c9.9-2.1,15.6-1.8,15.6-1.8c-17.9-12.6-115.9,24.8-49.8,35.5C203.1,449.7,351.6,407.3,304.8,386.2L304.8,386.2z" fill="currentColor"/>
	<path class="st0" d="M115.7,248.8c0,0-82.2,19.5-29.1,26.6c22.4,3,67.1,2.3,108.7-1.2c34-2.9,68.1-9,68.1-9s-12,5.1-20.7,11.1
		c-83.4,21.9-244.6,11.7-198.2-10.7C83.8,246.7,115.7,248.8,115.7,248.8L115.7,248.8z" fill="currentColor"/>
	<path class="st0" d="M263.1,331.2c84.8-44.1,45.6-86.4,18.2-80.7c-6.7,1.4-9.7,2.6-9.7,2.6s2.5-3.9,7.2-5.6
		c54.2-19,95.8,56.1-17.5,85.9C261.4,333.4,262.7,332.2,263.1,331.2L263.1,331.2z" fill="currentColor"/>
	<path class="st0" d="M211.9,0c0,0,47,47-44.6,119.2c-73.4,58-16.7,91,0,128.8c-42.8-38.7-74.3-72.7-53.2-104.4
		C145.1,97.2,230.9,74.6,211.9,0L211.9,0z" fill="currentColor"/>
	<path class="st0" d="M124,450.6c81.4,5.2,206.4-2.9,209.4-41.4c0,0-5.7,14.6-67.3,26.2c-69.5,13.1-155.2,11.6-206,3.2
		C60.1,438.6,70.5,447.2,124,450.6L124,450.6z" fill="currentColor"/>
</g>
</svg>
