<?xml version="1.0" encoding="utf-8"?>
<!-- Generator: Adobe Illustrator 27.6.1, SVG Export Plug-In . SVG Version: 6.00 Build 0)  -->
<svg version="1.1" id="University_of_Helsinki_Logo"
	 xmlns="http://www.w3.org/2000/svg" xmlns:xlink="http://www.w3.org/1999/xlink" x="0px" y="0px" viewBox="0 0 518.3 488.4"
	 style="enable-background:new 0 0 518.3 488.4;" xml:space="preserve">
<style type="text/css">
	.st0{fill:#E1E4E3;}
</style>
<path class="st0" d="M518.3,325.2c-18.7-41.1-60.7-47.1-87-64.3c-12.6-8.2-17.7-24.7-19.7-38.5c-12.4,1.3-33,1.5-42.9-23.6
	c-7.7-19.7-4.5-52.3-30.5-80c-23.6-25.1-52.6-33.4-79.2-31.6c32.6,21.8,19.8,54.7-3.9,54.7c-33,0-42.2-39.7-90.4-39.7
	c-11,0-20.8,3.4-26.8,7.5c27,3.4,33.5,25.6,41.9,45.6c6.7,15.9,18.7,25.2,36.3,30.1c-3.2,1.8-10.8,4.1-20.6,4.1
	c-21.3,0-36.1-11.2-51.4-26.9c-13.4-13.8-28.4-26.9-53.5-26.9c-12.4,0-21.8,3.9-25.1,6.1c13.8,2.2,34.2,10.4,34.2,25
	c0,12.5-13.8,17.2-25.1,5.3c-12.6-13.3-30.2-23.3-50.5-23.3c-10,0-20,3.2-24.2,7.3c24,2.8,38.1,18.1,53,52.4
	c8.4,19.4,20.3,37.7,50.3,38c13.7,0.2,33.1-6.3,44.4,4.6c10.8,10.3,7.2,23.9,12.1,34.9c6.2,13.8,19.1,20.9,44.2,22.3
	c-20.9,17.5-70.7,7-87.7-10.9c2.2,44.6,37.4,84.7,107.3,65.9c12.2-3.3,20.8-1.4,25.5,10.9c6.4,16.9,21.6,19.7,36,17.9
	c32.9-4.1,52.4,2.5,71.3,25.1c4.1-37.4-22.6-59.3-39.4-69.8c-16-10-17.5-20.4-17.8-28.5c11.6,13.2,26.7,18.8,42.3,21.1
	c27.1,3.8,46.5,11.4,56.8,25.9c3-41.1-40.1-50.4-45.4-67.7c13.6,8.9,23.6,12.1,37.7,11c18.9-1.4,41.8-16.2,58.7,12.7
	C471.1,307.9,499.3,312.9,518.3,325.2 M234.9,488.4h48.6v-48.6h-48.6V488.4z M234.9,51.1h48.6V2.5h-48.6V51.1z M283.5,269.8h-48.6
	v-48.6h48.6V269.8z"/>
</svg>
