<svg width="149" height="149" viewBox="0 0 149 149" fill="none" xmlns="http://www.w3.org/2000/svg">
<g clip-path="url(#clip0_15_6240)">
<path d="M63.0461 55.875C63.0461 59.8257 59.8423 63.0461 55.875 63.0461C51.9076 63.0461 48.7039 59.8423 48.7039 55.875C48.7039 51.9076 51.9076 48.7039 55.875 48.7039C59.8423 48.7039 63.0461 51.9076 63.0461 55.875Z" stroke="#E29C2D" stroke-width="5" stroke-linecap="round" stroke-linejoin="round"/>
<path d="M55.875 39.1423C45.1847 39.1423 36.1212 46.1807 33.0834 55.875C36.1212 65.5692 45.1847 72.6076 55.875 72.6076C66.5653 72.6076 75.6288 65.5692 78.6665 55.875C75.6288 46.1807 66.5653 39.1423 55.875 39.1423Z" stroke="#E29C2D" stroke-width="5" stroke-linecap="round" stroke-linejoin="round"/>
<path d="M144.385 126.789L109.094 96.777C105.442 93.4902 101.541 91.9796 98.3871 92.129C106.72 82.3683 111.75 69.7026 111.75 55.875C111.75 25.0159 86.7341 0 55.875 0C25.0159 0 0 25.0159 0 55.875C0 86.7341 25.0159 111.75 55.875 111.75C69.7192 111.75 82.3683 106.72 92.129 98.3871C91.9796 101.541 93.4902 105.442 96.777 109.094L126.789 144.385C131.935 150.096 140.318 150.577 145.448 145.448C150.577 140.318 150.096 131.935 144.385 126.789ZM55.875 93.125C35.3078 93.125 18.625 76.4422 18.625 55.875C18.625 35.3078 35.3078 18.625 55.875 18.625C76.4422 18.625 93.125 35.3078 93.125 55.875C93.125 76.4422 76.4422 93.125 55.875 93.125Z" fill="#E1E4E3"/>
</g>
<defs>
<clipPath id="clip0_15_6240">
<rect width="149" height="149" fill="white"/>
</clipPath>
</defs>
</svg>
