<?xml version="1.0" encoding="UTF-8"?>
<svg id="Calque_1" data-name="Calque 1" xmlns="http://www.w3.org/2000/svg" viewBox="0 0 199.71 199.66">
  <defs>
    <style>
      .cls-1 {
        fill: #e3e3e3;
      }
    </style>
  </defs>
  <path class="cls-1" d="m0,188.53V10.47c.29-.49.62-.96.86-1.48C2.66,5.11,5.38,2.19,9.48.71,9.85.57,10.15.24,10.47,0c59.35,0,118.7,0,178.05,0,.6.29,1.17.62,1.79.86,5.6,2.21,9.4,7.93,9.39,13.99-.08,56.76-.04,113.51-.05,170.27,0,7.94-6.45,14.53-14.32,14.54-57.09.02-114.18.02-171.26,0-5.51,0-10.98-3.74-13.05-8.87-.31-.77-.52-1.57-1.02-2.25Zm161.95-89.11c0-3.57-.42-7.1-.93-10.64-1.99-13.84-7.5-26.13-16.51-36.74-14.94-17.58-34.11-26.5-57.14-26.89-9.64-.16-18.95,1.86-27.9,5.46-4.48,1.8-8.75,4.03-12.77,6.72-2.07,1.38-2.23,2.25-.84,4.28.23.34.49.67.75.99,6.83,8.15,13.67,16.29,20.46,24.48,1.12,1.35,2.01,1.68,3.75.79,6.98-3.55,14.38-4.94,22.19-3.63,21.07,3.54,32.41,22.88,29.97,40.44-2.32,16.65-16.38,30.95-35.79,31.09-5.54.04-10.83-1.31-15.82-3.8-2.41-1.2-2.92-1.07-4.51.81-7.06,8.39-14.11,16.79-21.14,25.2-1.74,2.08-1.66,2.53.69,4.04,17.19,11.05,35.86,14.89,55.9,10.78,34.74-7.12,59.65-37.93,59.64-73.37Z"/>
</svg>