<?xml version="1.0" encoding="utf-8"?>
<!-- Generator: Adobe Illustrator 27.6.1, SVG Export Plug-In . SVG Version: 6.00 Build 0)  -->
<svg version="1.1" id="Calque_1" xmlns="http://www.w3.org/2000/svg" xmlns:xlink="http://www.w3.org/1999/xlink" x="0px" y="0px"
	 viewBox="0 0 24 21.4" style="enable-background:new 0 0 24 21.4;" xml:space="preserve">
<path d="M14.2,10.7c0,1.2-1,2.2-2.2,2.2c-1.2,0-2.2-1-2.2-2.2l0,0c0-1.2,1-2.2,2.2-2.2C13.2,8.5,14.2,9.5,14.2,10.7L14.2,10.7z
	 M16.9,0c-1.3,0-3.1,1-4.9,2.6C10.2,1,8.4,0,7.1,0C6.7,0,6.3,0.1,6,0.3C4.6,1.1,4.3,3.6,5,6.7c-3,0.9-5,2.4-5,4c0,1.6,2,3.1,5,4
	c-0.7,3.1-0.4,5.6,1,6.4c0.3,0.2,0.7,0.3,1.1,0.3c1.3,0,3.1-1,4.9-2.6c1.8,1.7,3.5,2.6,4.9,2.6c0.4,0,0.8-0.1,1.1-0.3
	c1.4-0.8,1.7-3.3,1-6.4c3-0.9,5-2.4,5-4c0-1.6-2-3.1-5-4c0.7-3.1,0.4-5.6-1-6.4C17.7,0.1,17.3,0,16.9,0L16.9,0z M16.9,1.1L16.9,1.1
	c0.2,0,0.4,0,0.6,0.1c0.7,0.4,1,1.8,0.7,3.7c-0.1,0.5-0.1,0.9-0.2,1.4c-1-0.2-2-0.4-3.1-0.5c-0.7-0.9-1.3-1.7-2-2.4
	C14.4,1.9,15.9,1.1,16.9,1.1L16.9,1.1z M7.1,1.1c1,0,2.5,0.8,4.1,2.3c-0.7,0.7-1.4,1.5-2,2.4C8.1,5.9,7,6.1,6.1,6.4
	C6,5.9,5.9,5.4,5.8,5C5.6,3.1,5.9,1.6,6.5,1.2C6.7,1.2,6.9,1.1,7.1,1.1L7.1,1.1z M12,4.2c0.5,0.5,0.9,1,1.4,1.6c-0.4,0-0.9,0-1.3,0
	c-0.5,0-0.9,0-1.4,0C11.1,5.2,11.5,4.6,12,4.2L12,4.2z M12,6.8c0.7,0,1.5,0,2.2,0.1c0.4,0.6,0.8,1.2,1.2,1.9c0.4,0.6,0.7,1.3,1,1.9
	c-0.3,0.7-0.6,1.3-1,1.9c-0.4,0.7-0.8,1.3-1.2,1.9c-0.7,0.1-1.5,0.1-2.2,0.1c-0.7,0-1.5,0-2.2-0.1c-0.4-0.6-0.8-1.2-1.2-1.9
	c-0.4-0.6-0.7-1.3-1-1.9c0.3-0.7,0.6-1.3,1-2C9,8.1,9.4,7.5,9.8,6.9C10.5,6.8,11.3,6.8,12,6.8L12,6.8z M8.4,7
	C8.1,7.4,7.9,7.8,7.7,8.2C7.4,8.6,7.2,9,7,9.4C6.8,8.7,6.5,8.1,6.3,7.4C7,7.3,7.7,7.1,8.4,7L8.4,7z M15.6,7c0.7,0.1,1.4,0.2,2,0.4
	c-0.2,0.6-0.4,1.3-0.7,1.9c-0.2-0.4-0.4-0.8-0.6-1.2C16.1,7.8,15.9,7.4,15.6,7L15.6,7z M18.7,7.7c0.5,0.1,0.9,0.3,1.4,0.5
	c1.7,0.7,2.9,1.7,2.9,2.5c0,0.8-1.1,1.7-2.9,2.5c-0.4,0.2-0.9,0.3-1.4,0.5c-0.3-1-0.6-2-1.1-3C18.1,9.7,18.4,8.7,18.7,7.7L18.7,7.7z
	 M5.3,7.7c0.3,1,0.6,2,1.1,3c-0.4,1-0.8,2-1.1,3c-0.5-0.1-0.9-0.3-1.4-0.5c-1.7-0.7-2.9-1.7-2.9-2.5s1.1-1.7,2.9-2.5
	C4.4,8,4.8,7.9,5.3,7.7z M17,12c0.3,0.7,0.5,1.3,0.7,1.9c-0.6,0.2-1.3,0.3-2,0.4c0.2-0.4,0.5-0.8,0.7-1.2C16.6,12.8,16.8,12.4,17,12
	L17,12z M7,12c0.2,0.4,0.4,0.8,0.6,1.2c0.2,0.4,0.5,0.8,0.7,1.1c-0.7-0.1-1.4-0.2-2-0.4C6.5,13.3,6.8,12.7,7,12L7,12z M17.9,15
	c0.1,0.5,0.2,1,0.3,1.4c0.2,1.9-0.1,3.3-0.7,3.7c-0.1,0.1-0.3,0.1-0.6,0.1c-1,0-2.5-0.8-4.1-2.3c0.7-0.7,1.4-1.5,2-2.4
	C15.9,15.4,17,15.2,17.9,15L17.9,15z M6.1,15c1,0.2,2,0.4,3.1,0.5c0.7,0.9,1.3,1.7,2,2.4c-1.6,1.5-3.1,2.3-4.1,2.3
	c-0.2,0-0.4,0-0.6-0.1c-0.7-0.4-1-1.8-0.7-3.7C5.9,16,6,15.5,6.1,15L6.1,15z M10.6,15.7c0.4,0,0.9,0,1.3,0c0.5,0,0.9,0,1.4,0
	c-0.4,0.6-0.9,1.1-1.3,1.6C11.6,16.8,11.1,16.2,10.6,15.7z" fill="currentColor"/>
</svg>
