<?xml version="1.0" encoding="utf-8"?>
<!-- Generator: Adobe Illustrator 27.6.1, SVG Export Plug-In . SVG Version: 6.00 Build 0)  -->
<svg version="1.1" id="Calque_1" xmlns="http://www.w3.org/2000/svg" xmlns:xlink="http://www.w3.org/1999/xlink" x="0px" y="0px"
	 viewBox="0 0 387.2 539.5" style="enable-background:new 0 0 387.2 539.5;" xml:space="preserve">
<style type="text/css">
	.st0{fill:none;}
	.st1{fill:#E29C2D;}
	.st2{fill:#15535E;}
	.st3{fill:#FAE5C0;}
	.st4{fill:#FBFEFD;}
</style>
<path class="st0" d="M-186.6,625.1c0-244.6,0-489.1-0.1-733.7c0-2.8,0.6-3.5,3.4-3.5c253.6,0.1,507.3,0.1,761,0
	c2.8,0,3.5,0.6,3.5,3.5c-0.1,253.7-0.1,507.3,0,761c0,2.8-0.6,3.5-3.4,3.5c-253.3-0.1-506.6-0.1-759.8-0.1c0-2.5,0-5,0-7.5
	c0.2-6,0.3-12.1,0.8-18.1C-180.9,625.9-182.4,624.3-186.6,625.1L-186.6,625.1z M351.9,76c-1.7-1.8-3.9-1.7-6.1-1.4
	c2.4-5.1-0.6-10.9-5.9-11.4c0.4-2-0.6-3.9-1.6-5.1c-7.9-9.1-17.3-16.4-27.5-22.7c-15.3-9.6-32-15.9-49.2-20.9
	c-11.8-3.4-23.9-6.2-36-8.3C211.7,4,197.8,1.5,183.8,0c-12.6-1.3-25.1-1.2-37.6-1c-10.1,0.2-20.3,2.4-30,5.5
	C88.9,13.4,64.3,27,44,47.5C26.9,64.7,14.1,84.4,8,108.3c-4.7,18.5-2.6,36.5,0.8,54.6c1.7,9.2,4.6,18.3,6.8,27.4
	c5.1,20.8,10.8,41.4,14,62.6c0.1,1,1,2-0.6,2.2c-3.5,0.5-6.6,2.4-9.3,4.3c-6,4.2-12,8.4-15,15.9c-4.3,10.7-5.2,21.7-4.6,32.9
	c0.3,6.1,1.8,12,4.6,17.5c7.9,15.5,20.6,25.8,36.5,32.3c0.3,0.2,0.6,0.4,0.8,0.5c0.2,0,0.4,0.1,0.7,0.2c0.6,0.2,1.1,0.4,1.6,0.6
	c0.5,0.2,1,0.4,1.5,0.6c-0.1,2.1,1.8,2.7,3,3.4c2.5,1.5,5.5,1.9,8,3.7c3,2.1,6.4,2.9,10,2.1c0.4,0.5,0.9,0.9,1.1,1.5
	c5.7,16,11.9,31.7,18.3,47.4c6,14.5,12.8,28.6,21.8,41.7c3.9,5.7,11.8,8.8,11.8,17.5c0,5.2,2.1,10.3,3.1,15.5
	c2.3,12.2,5.6,24,10.1,35.6c0.9,2.2,1.6,5,4.8,5.4c0.9,1.5,1.6,3,2.7,4.3c2.7,3.2,5.6,1,8.4,0c2.3-0.8,3-2.8,2.3-4.8
	c-0.9-2.4-1.2-5.8-5-5.8c-0.6-1.2-1.1-2.3-1.7-3.5c0.1-2.6,0-5.2-0.2-7.8c-0.7-6.9-2.2-13.7-4.6-20.2c-0.7-1.9-0.2-3.9,0.8-5.3
	c1.1-1.6,3-0.3,4.5,0.2c3.3,0.9,6.7,1.8,9.9,2.8c13.1,4,26.4,6.3,40,7c19.7,0.9,38.8-1.7,57-9.6c-1.7,6-3.5,12-5.2,17.9
	c-1.5,5.2-2.4,10.9-5.5,15.3c-2.8,3.9-2.5,6.6,0.9,9.4c0.8,4.8,4,6,8.4,6.1c4.7,0.2,6.6-3.2,7.9-6.5c1.7-4.1,2.5-8.5,3.7-12.8
	c3.4-11.7,6.8-23.4,10.2-35.1c1.6-5.7,3-11.4,8.4-15.3c3.1-2.3,5.7-5.8,7.7-9.2c4.9-8.5,9.2-17.4,12.9-26.5
	c7.2-18,15.2-35.6,21.9-53.8c1.8-4.9,2.9-10.7,9.6-12.1c3.4-0.7,6.7-1.7,10.1-2.7c9.4-2.8,18.1-6.8,25.5-13.4
	c10.3-9.1,15.6-21,17.6-34.4c1.8-11.9,2-23.9-3-35.2c-1.2-2.8-2.1-6.4-6.5-6.1c-3.6-9.8-11.4-16.1-18.5-23.1c1.7-1.1,1.1-3,1.1-4.5
	c-0.8-18.6,5.9-35.8,9.8-53.6c2.3-10.6,5.6-21,7.2-31.7c2.2-14.3,0.7-28.8,1-43.3c0.1-3.1-1.4-4.9-4.5-5.2c-1.4-2.8-0.6-5.8-0.6-8.7
	c0-3.9-2.6-5.6-5.8-5.9c-3-0.4-5,1.7-5.5,4.7c-0.4,2.6-0.2,5.2-0.3,7.8c-0.6-0.5-1.1-1.3-2.2-0.7c-1.5,0.8-3.1,2.3-4.6,0.4
	c-1.2-1.6-0.7-3.6,0-5.3c3-6.9,3.8-14.2,4.6-21.6C359,79.8,356.7,76.5,351.9,76L351.9,76z M-173.8,639.9c-0.1,2.2,0.2,4.3,2.6,4.2
	c2.4,0,2.6-2.2,2.6-4.2c0-1.7-0.1-3.5-2.3-3.5C-173,636.4-174.3,637.6-173.8,639.9L-173.8,639.9z"/>
<path class="st1" d="M339.9,63.3c5.3,0.5,8.3,6.3,5.9,11.4c-1.5,2.5-2.7,5.2-4.4,7.5c-3.5,4.7-7.9,8.5-12.2,12.4
	c-7.9,7.1-17.3,11.4-27.8,11.3c-16.7,0-33.1-3.1-48.6-9.9c-8.6-3.8-17.5-7-25.7-11.8c-13.1-7.7-24.7-16.9-32-30.6
	c-3.9-7.3-7.1-14.9-7-23.6c0.1-4.5-3-5.8-7-5.7c-3.7,0.1-4.8,2.3-4.9,5.7c-0.1,3.8,0.4,7.4,1.3,11c4.2,17.6,14.4,31.3,28.3,42.4
	c10.8,8.5,22.6,15.4,35.4,20.5c17.2,6.9,34.8,12.4,53.6,13.3c12.2,0.6,24.1-1.6,36.6-5.4c-2.9,2.6-3.3,5.5-4.6,7.9
	c-6.7,12.1-15.4,22.8-25.5,32.2c-13.7,12.9-30.8,18-49,19.1c-20.8,1.3-41.4-0.7-61.9-5c-20.1-4.2-40.1-8.4-59.4-15.3
	c-15.1-5.4-29.8-11.6-41.9-22.4c-10.9-9.8-20.1-20.8-20.8-36.5c-0.1-3.6-2.6-5.1-5.9-5.4c-3.1-0.2-4.4,1.7-4.9,4.4
	c-1.1,6.1,0.2,12,1.8,17.7c4.4,14.9,11.8,28.3,21,40.8c0.2,0.7,0.4,1.5,0.7,2.1c5.2,10.9,6.9,22.7,5,34.2
	C81.5,212.9,71.2,238,54.4,260c-4.8,6.2-7.6,12.2-4.4,20c0.7,1.7,0.6,4.1-0.4,6c-1.5-4.7-3.5-9.4-4.3-14.2
	c-0.8-4.7-3.7-9.5,0.3-14.5c7.6-9.7,14.4-19.8,19.9-31c9.9-20.4,15.3-41.7,14.2-64.5c-0.1-3.1-1.8-5.2-4.6-6.1
	c-2.9-0.9-3.7,1.9-4.9,3.6c-1.1,1.4-1.1,3.2-1.1,5c-0.2,11.6-1.5,23-5.1,34.2c-5.1,16-12,31.1-20.8,45.4c-0.6,1-1.1,2.2-2.4,2
	c-1.4-0.3-1.4-1.9-1.6-2.9c-0.4-2.8-0.2-5.7-0.9-8.4c-4-16.8-7.8-33.6-12.3-50.1c-4.1-14.7-7.3-29.7-9.1-44.7
	c-2.6-21.5,4-41.3,15.2-59.4c5.4-8.8,12-16.8,18.9-24.5c6.8-7.6,15.2-12.9,23.3-18.4c12.1-8.2,25-15.2,39.4-19.5
	c12-3.6,23.9-7,36.5-6.8c13.9,0.2,27.8-0.8,41.7,1.2c9.3,1.4,18.6,2.7,27.9,4.5c15.6,3.2,31.2,6.6,46.4,11.3
	c16.3,5,31.4,12.1,45.4,21.7c6.8,4.6,12.3,10.5,18,16.3C333.2,69.6,338.6,67.8,339.9,63.3L339.9,63.3z"/>
<path class="st2" d="M339.9,63.3c-1.2,4.6-6.6,6.4-10.3,2.7c-5.7-5.8-11.3-11.7-18-16.3c-14-9.5-29.1-16.7-45.4-21.7
	c-15.3-4.7-30.8-8.2-46.4-11.3c-9.2-1.9-18.5-3.2-27.9-4.5c-13.9-2-27.8-1-41.7-1.2c-12.6-0.2-24.4,3.2-36.5,6.8
	C99.2,22,86.4,29,74.2,37.2C66.1,42.7,57.7,48,50.9,55.6C44,63.3,37.4,71.3,32,80.1c-11.2,18.2-17.8,38-15.2,59.4
	c1.8,15.1,5.1,30,9.1,44.7c4.6,16.6,8.4,33.4,12.3,50.2c0.6,2.7,0.5,5.6,0.9,8.4c0.2,1.1,0.1,2.6,1.6,2.9c1.3,0.3,1.8-1,2.4-2
	c8.9-14.2,15.7-29.4,20.8-45.4c3.6-11.2,4.8-22.6,5.1-34.2c0-1.8,0-3.5,1.1-5c1.2-1.7,2.1-4.4,4.9-3.6c2.8,0.9,4.5,2.9,4.6,6.1
	c1.1,22.8-4.3,44.1-14.2,64.5c-5.4,11.2-12.3,21.4-19.9,31c-3.9,5-1.1,9.8-0.3,14.5c0.8,4.8,2.8,9.5,4.3,14.2
	c0.1,0.5,0.2,0.9,0.3,1.4c0,0.3-0.1,0.5-0.1,0.8c2,6.2,4,12.4,5.9,18.6c0.6,2.3,0.8,4.5,0.7,6.9c-0.2,2.7,0.2,5.4,2.2,7.5
	c3.1,3.9,5.3,8.2,7.4,12.7c2.2,4.7,2.7,10,6,14.2c-0.2,1.3,0.3,2.4,0.8,3.6c3,7.8,6,15.5,9,23.3c5.5,14.1,10.7,28.3,16.6,42.2
	c4.4,10.2,8.8,20.5,14.8,30c3,5.3,6.9,9.9,11.4,14c8.8,8.1,19.1,13.7,30.3,17.1c17.2,5.3,34.9,7.7,53,4.9c12.8-2,24.6-6.5,35.6-13.1
	c4.6-2.8,8.1-7.2,12.4-9.9c6-3.7,10.5-8.5,14.9-13.6c4.8-5.6,8-12.2,11-18.8c3.7-8.4,6.9-17.1,10.5-25.4c4.6-10.4,9-20.9,13.4-31.4
	c4.3-10,8.4-20.1,12.9-30c2.4-5.4,7.1-9.8,8-15.4c2.1-11.7,4.6-23.2,6.8-34.9c2-10.5,5.1-20.8,6.5-31.5c0.4-2.9,0-4.4-2-6.3
	c-6.2-5.9-12.4-11.8-17.1-19c-8.5-13.1-14.1-27.3-16.5-42.8c-0.6-3.9,0.5-7.9-1.5-11.6c0-1.4-0.1-2.8,0.2-4.1
	c0.9-3.7,2.6-6.9,7.2-6.4c3.7,0.4,5.1,3.5,4.5,6.1c-0.7,3.1-0.1,5.8,0.3,8.7c1.6,13.1,4.8,25.7,11.3,37.4
	c4.1,7.3,8.6,14.3,15.5,19.7c0.3-3.5,0.3-6.6,1-9.6c3.9-19.1,7.6-38.3,12.1-57.3c4.8-20.2,6.1-40.6,5.6-61.2
	c0.1-2.6-0.1-5.2,0.3-7.8c0.4-2.9,2.4-5,5.5-4.7c3.2,0.4,5.7,2,5.8,5.9c0,2.9-0.7,5.9,0.6,8.7c-0.9,0.4-0.7,1.2-0.7,1.9
	c-0.2,6.8-0.4,13.6-0.5,20.4c-0.2,13.2-2.5,26-5,38.8c-4.4,22.3-9.5,44.5-13.6,66.9c-1.1,6.2,1.4,7.9,5.2,10.1
	c7.1,7,14.9,13.3,18.5,23.1c3,9.7,3.2,19.6,2.2,29.7c-1.2,12.3-4.2,23.9-12.1,33.6c-10.6,13.2-25.5,18.5-41.5,21.3
	c-2.2,0.4-3.3,0.9-4,2.9c-2.1,5.6-4.3,11.1-6.5,16.6c-5.1,12.6-10.6,25-15.6,37.7c-5.5,13.8-11.5,27.5-21,39.3
	c-3,3.7-7.1,6.7-8.6,11.2c-3.1,9-5.2,18.4-7.5,27.7c-2.6,10.6-6,20.9-8.5,31.5c-1.1,4.6-7,7.3-11.1,5.6c-3.4-2.8-3.7-5.5-0.9-9.4
	c3.1-4.4,4-10.1,5.5-15.3c1.8-6,3.5-11.9,5.2-17.9c1-3.4,2.1-6.8,3-10.2c0.2-0.8,1.5-1.9,0.2-2.6c-0.9-0.4-2.4-0.2-3.2,0.3
	c-12.2,7.6-25.3,11.9-39.5,14.4c-16.8,3-33.4,3.2-49.9-0.3c-10.8-2.3-20.8-6.7-30.7-12.4c2,10.3,4.4,20,7.3,29.6
	c1.5,4.9,2.1,10.1,5.4,14.3c0.6,1.2,1.1,2.3,1.7,3.5c0.7,6.9-4.2,6.1-8.5,6.2c-3.2-0.4-3.9-3.1-4.8-5.4
	c-4.5-11.5-7.9-23.4-10.1-35.6c-1-5.2-3.1-10.3-3.1-15.5c-0.1-8.8-7.9-11.8-11.8-17.5c-9-13.1-15.8-27.1-21.8-41.7
	c-6.5-15.6-12.7-31.4-18.3-47.4c-0.2-0.5-0.7-1-1.1-1.5c-0.5-3.2-1.8-7.8-4.5-7.7c-5.7,0.3-11-1.2-16.5-1.5c-0.5-0.2-1-0.4-1.5-0.6
	c-0.3-0.8-1-0.7-1.6-0.6c-0.2-0.1-0.4-0.2-0.7-0.2c-0.3-0.2-0.6-0.4-0.8-0.5c-15.9-6.5-28.6-16.8-36.5-32.3
	c-2.8-5.5-4.3-11.4-4.6-17.5c-0.6-11.2,0.2-22.2,4.6-32.9c3.1-7.5,9-11.7,15-15.9c2.7-1.9,5.8-3.8,9.3-4.3c1.6-0.2,0.8-1.2,0.6-2.2
	c-3.3-21.2-8.9-41.8-14-62.6c-2.2-9.1-5.1-18.2-6.8-27.4c-3.4-18.1-5.6-36.1-0.8-54.6c6.1-23.9,18.9-43.6,36-60.8
	c20.4-20.6,44.9-34.1,72.2-43c9.7-3.2,19.8-5.4,30-5.5c12.5-0.2,25-0.3,37.6,1c14,1.5,27.9,4,41.8,6.3c12.1,2,24.2,4.9,36,8.3
	c17.2,4.9,34,11.3,49.2,20.9c10.1,6.4,19.6,13.6,27.5,22.7C339.3,59.3,340.3,61.3,339.9,63.3L339.9,63.3z M338.2,345.9
	c11-3.7,19.1-10.9,23.9-21.4c3.8-8.2,4.8-17.1,5.4-26.1c0.7-9.5-0.8-18.1-6.2-25.9c-1.9-3.3-4.4-5.9-7.3-8.2c-1-0.9-2.5-1.9-3,0.3
	c-2.8,12-5.5,24.1-8.3,36.2c-3.2,13.9-4.4,28.4-11.2,41.4c-2.7,5.1-2.1,5.4,3.8,4.5C336.4,346.5,337.3,346.1,338.2,345.9
	L338.2,345.9z M28.5,337.9c7.1,6.6,16,9.2,25.2,11c1.6,0.3,3.5,2,4.7,0.2c1-1.5-0.4-3.3-1.1-4.9c-2.9-6.1-5.2-12.5-9.1-18.2
	c-3.4-5-3-11.3-4.6-16.9c-3.4-11.7-6.2-23.5-9.2-35.3c0-2-0.8-3.9-0.9-6c-0.1-2.1-1.5-3.8-4.2-2.1c-3.9,2.5-8.1,4.5-10.9,8.6
	c-8.8,13.1-8.8,27.3-5,41.7C15.8,325,21.2,332.2,28.5,337.9L28.5,337.9z"/>
<path class="st2" d="M80.4,149.4c-9.2-12.4-16.7-25.8-21-40.8c-1.7-5.8-2.9-11.6-1.8-17.7c0.5-2.7,1.8-4.6,4.9-4.4
	c3.3,0.2,5.8,1.8,5.9,5.4c0.6,15.8,9.8,26.7,20.8,36.5c12.1,10.9,26.9,17.1,41.9,22.4c19.3,6.9,39.4,11.1,59.4,15.3
	c20.5,4.3,41.1,6.3,61.9,5c18.2-1.2,35.3-6.3,49-19.1c10.1-9.4,18.8-20.1,25.5-32.2c1.3-2.4,1.7-5.4,4.6-7.9
	c-12.5,3.8-24.4,6.1-36.6,5.4c-18.7-0.9-36.3-6.4-53.6-13.3c-12.8-5.1-24.6-12-35.4-20.5c-13.9-11.1-24.1-24.8-28.3-42.4
	c-0.9-3.6-1.4-7.3-1.3-11c0.1-3.4,1.2-5.6,4.9-5.7c4-0.1,7,1.2,7,5.7c-0.1,8.6,3,16.2,7,23.6c7.3,13.7,18.9,23,32,30.6
	c8.2,4.8,17.1,8,25.7,11.8c15.5,6.8,31.8,9.8,48.6,9.9c10.5,0,19.9-4.2,27.8-11.3c4.3-3.9,8.8-7.7,12.2-12.4c1.7-2.3,3-5,4.4-7.5
	c2.2-0.3,4.4-0.4,6.1,1.4c-0.2,3,0,6-0.6,8.9c-4.3,19.4-12.5,37.1-22.6,54c-8.6,14.5-20.5,25.3-35.8,32.7
	c-15,7.3-30.9,9.8-47.2,10.8c-8.6,0.5-17.3-0.4-25.9-1.3c-18.3-1.8-36.4-4.8-54.4-8.8c-19.8-4.4-39-10.5-57.7-18.4
	c-4.5-1.9-8.9-4.2-13.3-6.3c8.6,8.8,17.5,17.2,28.1,23.4c0.1,0.2,0.3,0.3,0.5,0.3v0c9.2,6.6,19,12.1,29.4,16.4
	c17.1,7.1,34.7,12.2,52.9,15.8c14.8,2.9,29.5,4.8,44.5,5c12.8,0.2,25.7,0.3,38.5-0.2c4-0.2,6.3,0.3,7.4,4.2
	c-0.6,2.4,1.2,6.5-3.4,6.5c-15-0.2-29.9,1.4-45,0.4c-13.7-0.9-27.4-1.2-40.8-4c-8.8-1.8-17.6-3.3-26.2-5.6
	c-6.1-1.6-11.9-4.1-18.2-4.9C131.7,191.1,102.2,175.9,80.4,149.4L80.4,149.4z"/>
<path class="st1" d="M122.4,171.1c-10.6-6.3-19.4-14.6-28.1-23.4c4.4,2.1,8.8,4.4,13.3,6.3c18.7,7.9,37.9,14,57.7,18.4
	c18,4,36,7,54.4,8.8c8.6,0.9,17.3,1.8,25.9,1.3c16.3-1,32.2-3.4,47.2-10.8c15.4-7.5,27.2-18.2,35.8-32.7
	c10.1-16.9,18.4-34.7,22.6-54c0.6-2.9,0.4-5.9,0.6-8.9c4.8,0.4,7.1,3.8,6.5,9.6c-0.8,7.3-1.6,14.7-4.6,21.6c-0.8,1.7-1.3,3.7,0,5.3
	c1.5,1.9,3.2,0.4,4.6-0.4c1.1-0.6,1.5,0.2,2.2,0.7c0.5,20.6-0.8,41-5.6,61.2c-4.5,19-8.2,38.2-12.1,57.3c-0.6,3-0.6,6.1-1,9.6
	c-6.9-5.4-11.4-12.4-15.5-19.7c-6.6-11.6-9.7-24.2-11.3-37.4c-0.3-2.9-0.9-5.6-0.3-8.7c0.6-2.6-0.8-5.8-4.5-6.1
	c-4.6-0.5-6.3,2.7-7.2,6.4c-0.3,1.3-0.1,2.7-0.2,4.1c-12.7,3.5-25.1,7.6-38.5,8.5c-19.6,1.3-39,0.4-58.4-2.2
	c-11.3-1.6-22.4-3.9-33.6-6c-7.3-1.4-14.5-2.7-21.5-5.1c-4.2-1.5-8.7-2.8-13-3.6c-4.8-0.8-10,0.2-15,0.4l0,0
	C122.8,171.1,122.8,170.7,122.4,171.1L122.4,171.1z"/>
<path class="st1" d="M242.3,533.4c4.1,1.7,10-1,11.1-5.6c2.6-10.6,5.9-20.9,8.5-31.5c2.3-9.3,4.4-18.7,7.5-27.7
	c1.5-4.5,5.7-7.5,8.6-11.2c9.5-11.8,15.5-25.5,21-39.3c5-12.6,10.5-25.1,15.6-37.7c2.2-5.5,4.4-11,6.5-16.6c0.8-2,1.9-2.5,4-2.9
	c16-2.8,30.9-8.1,41.5-21.3c7.9-9.8,11-21.3,12.1-33.6c1-10.1,0.8-20-2.2-29.7c4.4-0.3,5.2,3.3,6.5,6.1c5,11.4,4.8,23.3,3,35.2
	c-2,13.3-7.4,25.2-17.6,34.4c-7.4,6.5-16.1,10.6-25.5,13.4c-3.3,1-6.7,2-10.1,2.7c-6.6,1.4-7.8,7.2-9.6,12.1
	c-6.7,18.2-14.7,35.9-21.9,53.8c-3.7,9.2-8,18-12.9,26.6c-2,3.4-4.5,6.9-7.7,9.2c-5.4,3.9-6.7,9.6-8.4,15.3
	c-3.4,11.7-6.8,23.4-10.2,35.1c-1.2,4.3-2,8.7-3.7,12.8c-1.4,3.3-3.2,6.7-7.9,6.5C246.3,539.4,243.1,538.2,242.3,533.4L242.3,533.4z
	"/>
<path class="st1" d="M144.7,523.8c-3.3-4.2-3.9-9.4-5.4-14.3c-2.9-9.6-5.4-19.3-7.3-29.6c9.9,5.7,19.9,10.1,30.7,12.4
	c16.6,3.5,33.1,3.3,49.9,0.3c14.2-2.5,27.3-6.9,39.5-14.4c0.8-0.5,2.3-0.7,3.2-0.3c1.3,0.6,0,1.7-0.2,2.6c-0.9,3.4-2,6.8-3,10.2
	c-18.2,7.9-37.3,10.5-57,9.6c-13.6-0.6-26.9-3-40-7c-3.3-1-6.6-1.9-9.9-2.8c-1.5-0.4-3.4-1.7-4.5-0.2c-1,1.4-1.5,3.4-0.8,5.3
	c2.4,6.5,3.8,13.2,4.6,20.2C144.7,518.7,144.8,521.2,144.7,523.8L144.7,523.8z"/>
<path class="st1" d="M358.1,253.1c-3.9-2.2-6.4-3.9-5.2-10.1c4-22.4,9.2-44.6,13.6-66.9c2.5-12.8,4.9-25.6,5-38.8
	c0.1-6.8,0.3-13.6,0.5-20.4c0-0.7-0.2-1.5,0.7-1.9c3.2,0.3,4.6,2.1,4.5,5.2c-0.3,14.4,1.2,29-1,43.3c-1.6,10.7-4.9,21.1-7.2,31.7
	c-3.9,17.7-10.6,35-9.8,53.6C359.3,250.2,359.9,252,358.1,253.1L358.1,253.1z"/>
<path class="st1" d="M46,360c5.5,0.2,10.8,1.7,16.5,1.5c2.7-0.1,4,4.4,4.5,7.7c-3.6,0.8-7.1,0.1-10-2.1c-2.5-1.8-5.5-2.2-8-3.7
	C47.7,362.7,45.8,362,46,360z"/>
<path class="st1" d="M137.9,533.6c4.2-0.2,9.2,0.7,8.5-6.2c3.9,0,4.1,3.3,5,5.8c0.7,2,0,4-2.3,4.8c-2.8,1-5.7,3.2-8.4,0
	C139.6,536.6,138.8,535,137.9,533.6L137.9,533.6z"/>
<path class="st3" d="M42.8,358.8c0.6-0.1,1.3-0.3,1.6,0.6C43.9,359.2,43.4,359,42.8,358.8z"/>
<path class="st3" d="M41.3,358.1c0.3,0.2,0.6,0.4,0.8,0.5C41.9,358.5,41.6,358.3,41.3,358.1z"/>
<path class="st4" d="M122.9,171.4c5-0.2,10.2-1.3,15-0.4c4.3,0.8,8.8,2.1,13,3.6c7,2.4,14.2,3.8,21.5,5.1c11.2,2.1,22.3,4.5,33.6,6
	c19.4,2.7,38.8,3.6,58.4,2.2c13.3-0.9,25.8-4.9,38.5-8.5c2,3.6,0.9,7.7,1.5,11.6c2.3,15.6,8,29.7,16.5,42.8
	c4.7,7.3,10.9,13.1,17.1,19c2,1.9,2.4,3.4,2,6.3c-1.4,10.7-4.5,21-6.5,31.5c-2.2,11.6-4.7,23.2-6.8,34.9c-1,5.6-5.7,10.1-8,15.4
	c-4.4,10-8.6,20-12.9,30c-4.5,10.5-8.8,21-13.4,31.4c-3.7,8.3-6.9,17-10.5,25.4c-2.9,6.6-6.1,13.2-11,18.8
	c-4.4,5.1-8.9,9.9-14.9,13.6c-4.3,2.7-7.8,7.2-12.4,9.9c-11,6.6-22.8,11.1-35.6,13.1c-18.2,2.8-35.8,0.4-53-4.9
	c-11.1-3.4-21.4-9.1-30.3-17.1c-4.5-4.1-8.4-8.7-11.4-14c0.2-1.8-0.4-3.4-1.4-4.9c-1.4-2.3-2.5-4.7-3.2-7.5
	c-1.1-4.5-2.3-8.9-3.9-13.2c-1.9-5-5.1-9.4-6.7-14.6c-1.9-6.4-4-12.9-6.8-18.8c-4.7-9.8-7.3-20.2-11-30.3c-1.6-4.6-4.4-7.5-8.4-9.8
	c-3.3-4.2-3.8-9.5-6-14.2c-2.1-4.5-4.3-8.9-7.4-12.7c3.2-2.5,2.1-6,2.3-9.2c0.3-3.8-1.3-5.6-5.2-5.3c-2-6.2-4-12.4-5.9-18.6
	c0.1-0.1,0.3-0.2,0.3-0.2c0-0.2-0.1-0.4-0.2-0.6c-0.1-0.5-0.2-0.9-0.3-1.4c1-2,1.1-4.3,0.4-6c-3.2-7.8-0.4-13.8,4.4-20
	C71.2,238,81.5,213,86,185.8c1.9-11.6,0.3-23.4-5-34.2c-0.3-0.7-0.4-1.4-0.7-2.1c21.8,26.4,51.3,41.6,81.7,55.6
	c1.2,2.9,4.2,2.2,6.4,3c10.6,4.4,21.4,8.3,32.7,10.6c11,2.2,22,3.6,33.1,4.7c20.4,1.9,40.9,0.9,61.3,1.2c3.6,0,4.7-2.1,4.2-5.8
	c-0.4-3-4.1-3.1-4.1-6c-1.1-3.9-3.4-4.4-7.4-4.2c-12.8,0.5-25.7,0.4-38.5,0.2c-15-0.2-29.8-2.2-44.5-5c-18.2-3.6-35.9-8.7-52.9-15.8
	C142,183.6,132.1,178,122.9,171.4L122.9,171.4z M251.9,275.5c0.2,3,1,5.4,3.5,7.8c3.9,3.8,8.3,3.3,12.9,3.5
	c8.1,0.5,10.6-1.7,10.9-9.9c6.4-0.1,12.9,0.5,19.2-1.3c2.5-0.7,3.9-2.1,3.8-4.8c0-2.3-0.2-4.7-3.2-5.1c-2.2-0.3-2.5-2.2-3.3-3.6
	c-1-3.8-3.5-5.4-7.3-5.4c-14.2,0-28.5,0.1-42.7,0c-3.7,0-6.6,0.8-7.8,4.7c-1.2,4.1,0.9,6.1,4.5,7.3c-2,2.9-0.3,6.4,3.3,6.7
	C247.7,275.6,249.8,275.5,251.9,275.5L251.9,275.5z M108.1,271c-0.6,3.3-2.6,6.6,0.4,9.9c2.5,2.6,5.2,4.8,8.8,5.8
	c2.9,0.8,5.8-0.8,8.7-0.4c1.2,4.4,4.3,5.8,8.2,4.4c3-1.1,4.6-4.9,3.9-7.4c-2.5-8,3.6-5.9,7.2-6.9c0.2-0.1,0.5,0,0.8,0
	c3.7-0.7,6.2-2.7,6.1-6.7c0-3.7-1.4-6.6-5.8-6.8c-0.7-6.1-4.8-6.2-9.7-6.1c-12.7,0.3-25.5,0.1-38.2,0.1c-1.5,0-2.9,0.4-4.4,0.5
	c-2.7,0.3-4.1,2.5-4.7,4.5c-0.8,2.5,0,5.1,2.9,6.3c0.1,6.2,1.3,7.1,6.9,6.8c2.3-0.1,0-2.3,1.9-2.4
	C103.5,272.5,105.8,271.6,108.1,271L108.1,271z M139.7,317.6c-0.4-5.5-1.9-6.8-7.4-6.9c-10.5,0-20.9,0-31.4-0.1
	c-3.7,0-6.8,0.4-7.1,4.9c-0.2,4.6,2.6,6.3,6.7,6.6c0.5,0.6,1.1,0.7,1.6,0c0.7,0,1.4,0,2.1,0c-0.3,0.4-0.5,0.9-0.9,1.1
	c-1,0.4-2.9-0.3-2.5,1.8c0.3,1.6,1.8,1.5,3.1,1.4c2-0.1,4-0.9,5.9-0.4c11.1,2.5,22.3,0.6,33.5,1.2c2.2,0.1,2.9-1,3.2-3.1
	C147.3,318.5,142.6,319.1,139.7,317.6L139.7,317.6z M257.2,322.9c-1,1.4-3.3,3.2,0.6,3.6c11.9,1.3,23.9,0.8,35.8,0.7
	c4.6,0,6-2.9,3.9-7.1c-0.6-1.1-1.2-2.1-1.9-3.2c-0.3-5.5-4.2-6.1-8.3-6.1c-9.7,0-19.5-0.1-29.2,0.1c-6.2,0.1-8.5-0.1-8,8.1
	C250.2,320.6,252.7,322,257.2,322.9L257.2,322.9z M204.1,323.5c0-1.1,0-2.2,0-3.4c0-3.8-1.1-7-5.4-7c-4.1-0.1-6,2.2-6,6.7
	c0.2,10.8,0,21.7,0,32.5c0,1.6,0.1,2.9-2.2,2.7c-3.6-0.3-6.1,1.4-6.7,5c-0.6,4,1.8,5.9,5.2,7.1c0.9,6.2,5,7,14,6.5
	c4.8-0.3,7.7-4,7.7-9.6c0.1-11.3,0-22.7,0.1-34C210.8,325.7,208.6,323.5,204.1,323.5L204.1,323.5z M227.4,399.2
	c-0.1-2.2-0.7-4.6-3-5.1c-2.6-0.5-5.5-0.8-7.6,1.6c-1.4,1.6-2.8,3.2-4.8,4.1c-13.7,6.7-32.5,7.2-45.2-5.5c-2.6-2.6-5.6-2.7-7.8-0.4
	c-2.4,2.4-2.1,5.5,0.5,8.2c7.9,8.2,17.6,12.7,28.9,13.8c-0.1,3.8,2.4,5.4,5.5,6.5c4,1.4,8.1,0.7,12.1,0.1c11-1.5,19.3-7.4,25.3-16.4
	C233.9,402.1,232.3,399.7,227.4,399.2L227.4,399.2z"/>
<path class="st4" d="M34.4,273.9c3,11.8,5.9,23.6,9.2,35.3c1.6,5.6,1.2,11.9,4.6,16.9c3.9,5.7,6.2,12.1,9.1,18.2
	c0.7,1.5,2.1,3.4,1.1,4.9c-1.2,1.8-3.2,0.1-4.7-0.2c-9.2-1.8-18.1-4.4-25.2-11c-1.9-4.8-5.1-8.8-7.3-13.6
	c-4.9-10.9-5.4-21.3-1.3-32.3C22.8,284.3,26.5,277.4,34.4,273.9L34.4,273.9z"/>
<path class="st4" d="M361.3,272.5c5.5,7.8,7,16.5,6.2,25.9c-0.7,9-1.7,17.9-5.4,26.1c-4.8,10.5-12.9,17.7-23.9,21.4
	c0.8-1.2,1.6-2.5,2.3-3.8c5.4-10.1,6.7-21.4,9.6-32.3C353.3,297.2,353.6,283.8,361.3,272.5L361.3,272.5z"/>
<path class="st1" d="M361.3,272.5c-7.8,11.2-8,24.7-11.3,37.3c-2.8,10.9-4.2,22.2-9.6,32.3c-0.7,1.3-1.5,2.5-2.3,3.8
	c-0.9,0.3-1.8,0.7-2.8,0.8c-5.9,0.9-6.5,0.6-3.8-4.5c6.8-13,8-27.5,11.2-41.4c2.7-12.1,5.5-24.1,8.3-36.2c0.5-2.2,1.9-1.2,3-0.3
	C356.9,266.6,359.5,269.2,361.3,272.5L361.3,272.5z"/>
<path class="st1" d="M34.4,273.9c-7.9,3.6-11.6,10.5-14.4,18.1c-4.1,11-3.6,21.4,1.3,32.3c2.1,4.8,5.4,8.8,7.3,13.6
	c-7.4-5.6-12.7-12.9-15.1-21.7c-3.8-14.4-3.8-28.6,5-41.7c2.8-4.1,6.9-6.1,10.9-8.6c2.6-1.7,4.1,0,4.2,2.1
	C33.6,270,34.4,271.9,34.4,273.9L34.4,273.9z"/>
<path class="st1" d="M72,348.2c4,2.2,6.8,5.2,8.4,9.8c3.6,10.1,6.3,20.5,11,30.3c2.8,5.9,4.9,12.4,6.8,18.8
	c1.5,5.2,4.8,9.6,6.7,14.6c1.6,4.3,2.8,8.8,3.9,13.2c0.6,2.7,1.8,5.1,3.2,7.5c0.9,1.6,1.5,3.1,1.4,4.9c-6-9.5-10.4-19.8-14.8-30
	c-5.9-13.9-11.1-28.1-16.6-42.2c-3-7.8-6-15.5-9-23.3C72.4,350.6,71.8,349.5,72,348.2L72,348.2z"/>
<path class="st1" d="M55.7,306.9c3.9-0.4,5.4,1.4,5.2,5.3c-0.2,3.2,0.9,6.7-2.3,9.2c-2-2.1-2.3-4.8-2.2-7.5
	C56.5,311.5,56.3,309.2,55.7,306.9L55.7,306.9z"/>
<path class="st3" d="M49.8,287.4c0.1,0.2,0.1,0.4,0.2,0.6c0,0.1-0.2,0.1-0.3,0.2C49.8,288,49.8,287.7,49.8,287.4L49.8,287.4z"/>
<path class="st1" d="M295.6,212.7c0,2.9,3.8,3,4.1,6c0.5,3.7-0.6,5.9-4.2,5.8c-20.4-0.2-40.9,0.8-61.3-1.2
	c-11.1-1-22.2-2.5-33.1-4.7c-11.3-2.3-22.1-6.2-32.7-10.6c-2.1-0.9-5.2-0.1-6.4-3c6.3,0.7,12.1,3.2,18.2,4.9
	c8.6,2.3,17.5,3.8,26.2,5.6c13.5,2.8,27.1,3.2,40.8,4c15.1,1,30-0.5,45-0.4C296.8,219.2,295,215.1,295.6,212.7L295.6,212.7z"/>
<path class="st4" d="M122.4,171.1c0.4-0.4,0.5-0.1,0.5,0.3C122.7,171.4,122.5,171.3,122.4,171.1z"/>
<path class="st2" d="M188.2,415.8c-11.3-1.1-21-5.6-28.9-13.8c-2.6-2.7-2.8-5.8-0.5-8.2c2.3-2.3,5.3-2.1,7.8,0.4
	c12.8,12.8,31.5,12.2,45.2,5.5c2-1,3.4-2.5,4.8-4.1c2.1-2.4,5.1-2.2,7.6-1.6c2.3,0.5,2.9,2.9,3,5.1c-2.2,4.8-7,7-10.5,10.6
	c-1.8,1.9-4.8,3-7.4,3.6C202.5,415.1,195.4,416.2,188.2,415.8L188.2,415.8z"/>
<path class="st2" d="M189,367.1c-3.4-1.2-5.8-3.1-5.2-7.1c0.6-3.7,3.1-5.3,6.7-5c2.3,0.2,2.2-1.1,2.2-2.7c0-10.9,0.2-21.7,0-32.5
	c-0.1-4.4,1.9-6.7,6-6.7c4.3,0.1,5.4,3.3,5.4,7c0,1.1,0,2.2,0,3.4c-0.1,12.4-0.2,24.7-0.5,37.1c-0.1,3.8-2.5,6.1-6.4,6.4
	C194.5,367.1,191.8,367,189,367.1L189,367.1z"/>
<path class="st2" d="M242.3,268.7c-3.6-1.2-5.7-3.2-4.5-7.3c1.2-3.9,4.1-4.7,7.8-4.7c14.2,0.1,28.5,0,42.7,0c3.8,0,6.3,1.6,7.3,5.4
	c0.2,6.2-4.1,6.2-8.5,6.1c-14.2,0.8-28.4,0.6-42.6,0C243.8,268.3,243.1,268.5,242.3,268.7L242.3,268.7z"/>
<path class="st2" d="M92.3,268.1c-2.8-1.3-3.6-3.9-2.9-6.3c0.6-2,2-4.2,4.7-4.5c1.5-0.2,2.9-0.5,4.4-0.5c12.7-0.1,25.5,0.1,38.2-0.1
	c4.9-0.1,9,0.1,9.7,6.1c0.1,3.1-1.5,5-4.5,5.3c-3.9,0.4-7.9,1-11.8,0.7C117.6,267.7,104.9,268.1,92.3,268.1L92.3,268.1z"/>
<path class="st2" d="M257.2,322.9c-4.5-0.9-7-2.3-7.1-4c-0.5-8.1,1.8-7.9,8-8.1c9.7-0.2,19.5-0.2,29.2-0.1c4.1,0,8.1,0.6,8.3,6.1
	c-0.1,6.1-5,5.7-8.7,5.8C277,323,267.1,322.8,257.2,322.9L257.2,322.9z"/>
<path class="st2" d="M104.2,322.2c-0.7,0-1.4,0-2.1,0c-0.5,0-1.1,0-1.6,0c-4.1-0.3-7-1.9-6.7-6.6c0.2-4.5,3.4-5,7.1-4.9
	c10.4,0.1,20.9,0,31.4,0.1c5.6,0,7,1.4,7.4,6.9c-0.6,3.6-2.8,4.6-6.4,4.6C123.6,322,113.9,322.2,104.2,322.2L104.2,322.2z"/>
<path class="st1" d="M92.3,268.1c12.6,0,25.3-0.4,37.9,0.6c3.9,0.3,7.8-0.3,11.8-0.7c3-0.3,4.6-2.1,4.5-5.3c4.4,0.2,5.7,3.1,5.8,6.8
	c0,4-2.4,6-6.1,6.7c-0.2,0-0.5,0-0.8,0c-3.6,1-9.7-1.2-7.2,6.9c0.8,2.5-0.8,6.2-3.9,7.4c-3.9,1.5-7.1,0.1-8.2-4.4
	c0.9-0.3,1.9-0.4,2.8-0.9c4.8-2.4,4.5-7,3.8-11.1c-0.6-3.5-4-3.4-6.9-3.3c-5.9,0.1-11.7,0.1-17.6,0.1c-2.3,0.5-4.6,1.4-7,1.5
	c-1.9,0,0.4,2.2-1.9,2.4C93.6,275.2,92.4,274.3,92.3,268.1L92.3,268.1z"/>
<path class="st1" d="M189,367.1c2.7,0,5.5,0,8.2-0.2c3.9-0.3,6.3-2.6,6.4-6.4c0.3-12.4,0.4-24.7,0.5-37.1c4.5,0,6.7,2.2,6.7,6.6
	c0,11.3,0,22.7-0.1,34c0,5.6-2.9,9.3-7.7,9.6C194,374.1,190,373.3,189,367.1L189,367.1z"/>
<path class="st2" d="M279.2,276.9c-0.3,8.2-2.8,10.4-10.9,9.9c-4.6-0.2-9,0.3-12.9-3.5c-2.4-2.4-3.3-4.8-3.5-7.8
	c0.1-0.6,0.2-1.1,0.3-1.7c1.1-2.1,2.6-3,5.2-2.9c5.7,0.2,11.4,0,17.1,0l0.3,0.1l0.3,0c0.5,0.3,1.1,0.6,1.7,0.9
	C277.8,273.5,279.2,274.8,279.2,276.9L279.2,276.9z"/>
<path class="st1" d="M188.2,415.8c7.2,0.4,14.3-0.8,21.2-2.5c2.6-0.6,5.6-1.8,7.4-3.6c3.5-3.5,8.3-5.8,10.5-10.6
	c4.9,0.5,6.5,3,3.8,6.9c-6,9-14.3,14.9-25.3,16.4c-4.1,0.6-8.1,1.3-12.1-0.1C190.6,421.3,188.1,419.7,188.2,415.8L188.2,415.8z"/>
<path class="st2" d="M108.1,271c5.9,0,11.7,0,17.6-0.1c3-0.1,6.3-0.2,6.9,3.3c0.7,4.1,0.9,8.6-3.8,11.1c-0.9,0.4-1.9,0.6-2.8,0.9
	c-2.9-0.4-5.7,1.2-8.7,0.4c-3.6-1-6.3-3.1-8.8-5.8C105.5,277.6,107.5,274.3,108.1,271L108.1,271z"/>
<path class="st1" d="M104.2,322.2c9.7,0,19.4-0.2,29.1-0.1c3.6,0.1,5.7-1,6.4-4.6c2.9,1.5,7.7,0.9,6.7,6.5c-0.4,2.1-1,3.3-3.2,3.1
	c-11.1-0.6-22.4,1.3-33.5-1.2c-1.8-0.4-3.9,0.3-5.9,0.4c-1.2,0.1-2.8,0.1-3.1-1.4c-0.4-2.1,1.5-1.3,2.5-1.8
	C103.7,323.1,103.9,322.6,104.2,322.2L104.2,322.2z"/>
<path class="st1" d="M279.2,276.9c0.1-2.1-1.4-3.4-2.4-5c-0.3-0.8-0.9-0.9-1.7-0.9l-0.3,0l-0.3-0.1c-2.8-1.6-6,0.1-10-1.5
	c7.2,0,13.3,0,19.3,0c1.2,0,2.9,0.7,3.4-1.2c4.4,0.1,8.6,0.1,8.5-6.1c0.9,1.4,1.2,3.3,3.3,3.6c3,0.4,3.2,2.8,3.2,5.1
	c0,2.6-1.4,4-3.8,4.8C292.1,277.5,285.6,276.8,279.2,276.9L279.2,276.9z"/>
<path class="st1" d="M257.2,322.9c9.9,0,19.8,0.1,29.7-0.2c3.8-0.1,8.6,0.3,8.7-5.8c0.6,1.1,1.3,2.1,1.9,3.2
	c2.1,4.2,0.8,7.1-3.9,7.1c-11.9,0.1-23.9,0.6-35.8-0.7C253.9,326,256.3,324.3,257.2,322.9L257.2,322.9z"/>
<path class="st1" d="M252.2,273.8c-0.1,0.6-0.2,1.1-0.3,1.7c-2.1,0-4.2,0.1-6.3,0c-3.6-0.3-5.3-3.9-3.3-6.7c0.8-0.2,1.5-0.4,2.3-0.5
	c0.2,1.1,1,1.5,1.9,1.3C250.1,268.7,251.7,270.5,252.2,273.8L252.2,273.8z"/>
<path class="st3" d="M100.5,322.2c0.5,0,1.1,0,1.6,0C101.6,322.9,101,322.8,100.5,322.2z"/>
<path class="st4" d="M252.2,273.8c-0.5-3.3-2.1-5.1-5.7-4.3c-0.9,0.2-1.7-0.2-1.9-1.3c14.2,0.6,28.4,0.8,42.6,0
	c-0.6,2-2.2,1.2-3.4,1.2c-6,0.1-12.1,0-19.3,0c4,1.5,7.2-0.1,10,1.5c-5.7,0-11.4,0.2-17.1,0C254.8,270.8,253.3,271.6,252.2,273.8
	L252.2,273.8z"/>
<path class="st4" d="M275.1,271c0.7,0,1.4,0.1,1.7,0.9C276.2,271.6,275.6,271.3,275.1,271z"/>
</svg>
